<?xml version="1.0" ?><svg xmlns:svg="http://www.w3.org/2000/svg" xmlns="http://www.w3.org/2000/svg" width="200mm" height="200mm" viewBox="0 0 100 100" version="1.1">
     <g>
    <animateTransform attributeName="transform" type="translate" dur="6s" values="0,0; 0,0; -150,-150; -150,-150; -750,-750; -750,-750; -750,-750" keyTimes="0.0; 0.25; 0.3333333333333333; 0.5833333333333334; 0.6666666666666666; 0.9166666666666666; 1" repeatCount="indefinite"/>
    <animateTransform attributeName="transform" type="scale" additive="sum" dur="6s" values="1;1; 4;4; 16;16; 16" keyTimes="0.0; 0.25; 0.3333333333333333; 0.5833333333333334; 0.6666666666666666; 0.9166666666666666; 1" repeatCount="indefinite"/>
        
    <rect x="47.65625" y="47.65625" width="4.6875" height="4.6875" fill="LightGoldenRodYellow"/>
    
    <rect x="47.8515625" y="49.4140625" width="1.171875" height="1.171875" fill="LightPink"/>
    </g><g>
        <animateTransform attributeName="transform" type="translate" dur="6s" values="0,0; 0,0; -150,-150; -150,-150; -150,-150; -150,-150; -150,-150; " keyTimes="0.0; 0.25; 0.3333333333333333; 0.5833333333333334; 0.6666666666666666; 0.9166666666666666; 1" repeatCount="indefinite"/>
        <animateTransform attributeName="transform" type="scale" additive="sum" dur="6s" values="1;1;4;4;4;4;4;" keyTimes="0.0; 0.25; 0.3333333333333333; 0.5833333333333334; 0.6666666666666666; 0.9166666666666666; 1" repeatCount="indefinite"/>
            <g><line x1="46.875" y1="40.625" x2="46.875" y2="59.375" stroke="black" stroke-width="0.25px"/><line x1="53.125" y1="40.625" x2="53.125" y2="59.375" stroke="black" stroke-width="0.25px"/><line x1="40.625" y1="46.875" x2="59.375" y2="46.875" stroke="black" stroke-width="0.25px"/><line x1="40.625" y1="53.125" x2="59.375" y2="53.125" stroke="black" stroke-width="0.25px"/></g></g><g>
        <animateTransform attributeName="transform" type="translate" dur="6s" values="0,0; 0,0; 0,0; 0,0; -150,-150; -150,-150; -150,-150; " keyTimes="0.0; 0.25; 0.3333333333333333; 0.5833333333333334; 0.6666666666666666; 0.9166666666666666; 1" repeatCount="indefinite"/>
        <animateTransform attributeName="transform" type="scale" additive="sum" dur="6s" values="1;1;1;1;4;4;4;" keyTimes="0.0; 0.25; 0.3333333333333333; 0.5833333333333334; 0.6666666666666666; 0.9166666666666666; 1" repeatCount="indefinite"/>
            <g><line x1="46.875" y1="40.625" x2="46.875" y2="59.375" stroke="black" stroke-width="0.25px"/><line x1="53.125" y1="40.625" x2="53.125" y2="59.375" stroke="black" stroke-width="0.25px"/><line x1="40.625" y1="46.875" x2="59.375" y2="46.875" stroke="black" stroke-width="0.25px"/><line x1="40.625" y1="53.125" x2="59.375" y2="53.125" stroke="black" stroke-width="0.25px"/></g></g><g><line x1="37.5" y1="12.5" x2="37.5" y2="87.5" stroke="black" stroke-width="1.0px"/><line x1="62.5" y1="12.5" x2="62.5" y2="87.5" stroke="black" stroke-width="1.0px"/><line x1="12.5" y1="37.5" x2="87.5" y2="37.5" stroke="black" stroke-width="1.0px"/><line x1="12.5" y1="62.5" x2="87.5" y2="62.5" stroke="black" stroke-width="1.0px"/></g><g><line x1="21.875" y1="15.625" x2="21.875" y2="34.375" stroke="black" stroke-width="0.25px"/><line x1="28.125" y1="15.625" x2="28.125" y2="34.375" stroke="black" stroke-width="0.25px"/><line x1="15.625" y1="21.875" x2="34.375" y2="21.875" stroke="black" stroke-width="0.25px"/><line x1="15.625" y1="28.125" x2="34.375" y2="28.125" stroke="black" stroke-width="0.25px"/></g><g><line x1="17.96875" y1="16.40625" x2="17.96875" y2="21.09375" stroke="black" stroke-width="0.1px"/><line x1="19.53125" y1="16.40625" x2="19.53125" y2="21.09375" stroke="black" stroke-width="0.1px"/><line x1="16.40625" y1="17.96875" x2="21.09375" y2="17.96875" stroke="black" stroke-width="0.1px"/><line x1="16.40625" y1="19.53125" x2="21.09375" y2="19.53125" stroke="black" stroke-width="0.1px"/></g><g><line x1="24.21875" y1="16.40625" x2="24.21875" y2="21.09375" stroke="black" stroke-width="0.1px"/><line x1="25.78125" y1="16.40625" x2="25.78125" y2="21.09375" stroke="black" stroke-width="0.1px"/><line x1="22.65625" y1="17.96875" x2="27.34375" y2="17.96875" stroke="black" stroke-width="0.1px"/><line x1="22.65625" y1="19.53125" x2="27.34375" y2="19.53125" stroke="black" stroke-width="0.1px"/></g><g><line x1="30.46875" y1="16.40625" x2="30.46875" y2="21.09375" stroke="black" stroke-width="0.1px"/><line x1="32.03125" y1="16.40625" x2="32.03125" y2="21.09375" stroke="black" stroke-width="0.1px"/><line x1="28.90625" y1="17.96875" x2="33.59375" y2="17.96875" stroke="black" stroke-width="0.1px"/><line x1="28.90625" y1="19.53125" x2="33.59375" y2="19.53125" stroke="black" stroke-width="0.1px"/></g><g><line x1="17.96875" y1="22.65625" x2="17.96875" y2="27.34375" stroke="black" stroke-width="0.1px"/><line x1="19.53125" y1="22.65625" x2="19.53125" y2="27.34375" stroke="black" stroke-width="0.1px"/><line x1="16.40625" y1="24.21875" x2="21.09375" y2="24.21875" stroke="black" stroke-width="0.1px"/><line x1="16.40625" y1="25.78125" x2="21.09375" y2="25.78125" stroke="black" stroke-width="0.1px"/></g><g><line x1="24.21875" y1="22.65625" x2="24.21875" y2="27.34375" stroke="black" stroke-width="0.1px"/><line x1="25.78125" y1="22.65625" x2="25.78125" y2="27.34375" stroke="black" stroke-width="0.1px"/><line x1="22.65625" y1="24.21875" x2="27.34375" y2="24.21875" stroke="black" stroke-width="0.1px"/><line x1="22.65625" y1="25.78125" x2="27.34375" y2="25.78125" stroke="black" stroke-width="0.1px"/></g><g><line x1="30.46875" y1="22.65625" x2="30.46875" y2="27.34375" stroke="black" stroke-width="0.1px"/><line x1="32.03125" y1="22.65625" x2="32.03125" y2="27.34375" stroke="black" stroke-width="0.1px"/><line x1="28.90625" y1="24.21875" x2="33.59375" y2="24.21875" stroke="black" stroke-width="0.1px"/><line x1="28.90625" y1="25.78125" x2="33.59375" y2="25.78125" stroke="black" stroke-width="0.1px"/></g><g><line x1="17.96875" y1="28.90625" x2="17.96875" y2="33.59375" stroke="black" stroke-width="0.1px"/><line x1="19.53125" y1="28.90625" x2="19.53125" y2="33.59375" stroke="black" stroke-width="0.1px"/><line x1="16.40625" y1="30.46875" x2="21.09375" y2="30.46875" stroke="black" stroke-width="0.1px"/><line x1="16.40625" y1="32.03125" x2="21.09375" y2="32.03125" stroke="black" stroke-width="0.1px"/></g><g><line x1="24.21875" y1="28.90625" x2="24.21875" y2="33.59375" stroke="black" stroke-width="0.1px"/><line x1="25.78125" y1="28.90625" x2="25.78125" y2="33.59375" stroke="black" stroke-width="0.1px"/><line x1="22.65625" y1="30.46875" x2="27.34375" y2="30.46875" stroke="black" stroke-width="0.1px"/><line x1="22.65625" y1="32.03125" x2="27.34375" y2="32.03125" stroke="black" stroke-width="0.1px"/></g><g><line x1="30.46875" y1="28.90625" x2="30.46875" y2="33.59375" stroke="black" stroke-width="0.1px"/><line x1="32.03125" y1="28.90625" x2="32.03125" y2="33.59375" stroke="black" stroke-width="0.1px"/><line x1="28.90625" y1="30.46875" x2="33.59375" y2="30.46875" stroke="black" stroke-width="0.1px"/><line x1="28.90625" y1="32.03125" x2="33.59375" y2="32.03125" stroke="black" stroke-width="0.1px"/></g><g><line x1="46.875" y1="15.625" x2="46.875" y2="34.375" stroke="black" stroke-width="0.25px"/><line x1="53.125" y1="15.625" x2="53.125" y2="34.375" stroke="black" stroke-width="0.25px"/><line x1="40.625" y1="21.875" x2="59.375" y2="21.875" stroke="black" stroke-width="0.25px"/><line x1="40.625" y1="28.125" x2="59.375" y2="28.125" stroke="black" stroke-width="0.25px"/></g><g><line x1="42.96875" y1="16.40625" x2="42.96875" y2="21.09375" stroke="black" stroke-width="0.1px"/><line x1="44.53125" y1="16.40625" x2="44.53125" y2="21.09375" stroke="black" stroke-width="0.1px"/><line x1="41.40625" y1="17.96875" x2="46.09375" y2="17.96875" stroke="black" stroke-width="0.1px"/><line x1="41.40625" y1="19.53125" x2="46.09375" y2="19.53125" stroke="black" stroke-width="0.1px"/></g><g><line x1="49.21875" y1="16.40625" x2="49.21875" y2="21.09375" stroke="black" stroke-width="0.1px"/><line x1="50.78125" y1="16.40625" x2="50.78125" y2="21.09375" stroke="black" stroke-width="0.1px"/><line x1="47.65625" y1="17.96875" x2="52.34375" y2="17.96875" stroke="black" stroke-width="0.1px"/><line x1="47.65625" y1="19.53125" x2="52.34375" y2="19.53125" stroke="black" stroke-width="0.1px"/></g><g><line x1="55.46875" y1="16.40625" x2="55.46875" y2="21.09375" stroke="black" stroke-width="0.1px"/><line x1="57.03125" y1="16.40625" x2="57.03125" y2="21.09375" stroke="black" stroke-width="0.1px"/><line x1="53.90625" y1="17.96875" x2="58.59375" y2="17.96875" stroke="black" stroke-width="0.1px"/><line x1="53.90625" y1="19.53125" x2="58.59375" y2="19.53125" stroke="black" stroke-width="0.1px"/></g><g><line x1="42.96875" y1="22.65625" x2="42.96875" y2="27.34375" stroke="black" stroke-width="0.1px"/><line x1="44.53125" y1="22.65625" x2="44.53125" y2="27.34375" stroke="black" stroke-width="0.1px"/><line x1="41.40625" y1="24.21875" x2="46.09375" y2="24.21875" stroke="black" stroke-width="0.1px"/><line x1="41.40625" y1="25.78125" x2="46.09375" y2="25.78125" stroke="black" stroke-width="0.1px"/></g><g><line x1="49.21875" y1="22.65625" x2="49.21875" y2="27.34375" stroke="black" stroke-width="0.1px"/><line x1="50.78125" y1="22.65625" x2="50.78125" y2="27.34375" stroke="black" stroke-width="0.1px"/><line x1="47.65625" y1="24.21875" x2="52.34375" y2="24.21875" stroke="black" stroke-width="0.1px"/><line x1="47.65625" y1="25.78125" x2="52.34375" y2="25.78125" stroke="black" stroke-width="0.1px"/></g><g><line x1="55.46875" y1="22.65625" x2="55.46875" y2="27.34375" stroke="black" stroke-width="0.1px"/><line x1="57.03125" y1="22.65625" x2="57.03125" y2="27.34375" stroke="black" stroke-width="0.1px"/><line x1="53.90625" y1="24.21875" x2="58.59375" y2="24.21875" stroke="black" stroke-width="0.1px"/><line x1="53.90625" y1="25.78125" x2="58.59375" y2="25.78125" stroke="black" stroke-width="0.1px"/></g><g><line x1="42.96875" y1="28.90625" x2="42.96875" y2="33.59375" stroke="black" stroke-width="0.1px"/><line x1="44.53125" y1="28.90625" x2="44.53125" y2="33.59375" stroke="black" stroke-width="0.1px"/><line x1="41.40625" y1="30.46875" x2="46.09375" y2="30.46875" stroke="black" stroke-width="0.1px"/><line x1="41.40625" y1="32.03125" x2="46.09375" y2="32.03125" stroke="black" stroke-width="0.1px"/></g><g><line x1="49.21875" y1="28.90625" x2="49.21875" y2="33.59375" stroke="black" stroke-width="0.1px"/><line x1="50.78125" y1="28.90625" x2="50.78125" y2="33.59375" stroke="black" stroke-width="0.1px"/><line x1="47.65625" y1="30.46875" x2="52.34375" y2="30.46875" stroke="black" stroke-width="0.1px"/><line x1="47.65625" y1="32.03125" x2="52.34375" y2="32.03125" stroke="black" stroke-width="0.1px"/></g><g><line x1="55.46875" y1="28.90625" x2="55.46875" y2="33.59375" stroke="black" stroke-width="0.1px"/><line x1="57.03125" y1="28.90625" x2="57.03125" y2="33.59375" stroke="black" stroke-width="0.1px"/><line x1="53.90625" y1="30.46875" x2="58.59375" y2="30.46875" stroke="black" stroke-width="0.1px"/><line x1="53.90625" y1="32.03125" x2="58.59375" y2="32.03125" stroke="black" stroke-width="0.1px"/></g><g><line x1="71.875" y1="15.625" x2="71.875" y2="34.375" stroke="black" stroke-width="0.25px"/><line x1="78.125" y1="15.625" x2="78.125" y2="34.375" stroke="black" stroke-width="0.25px"/><line x1="65.625" y1="21.875" x2="84.375" y2="21.875" stroke="black" stroke-width="0.25px"/><line x1="65.625" y1="28.125" x2="84.375" y2="28.125" stroke="black" stroke-width="0.25px"/></g><g><line x1="67.96875" y1="16.40625" x2="67.96875" y2="21.09375" stroke="black" stroke-width="0.1px"/><line x1="69.53125" y1="16.40625" x2="69.53125" y2="21.09375" stroke="black" stroke-width="0.1px"/><line x1="66.40625" y1="17.96875" x2="71.09375" y2="17.96875" stroke="black" stroke-width="0.1px"/><line x1="66.40625" y1="19.53125" x2="71.09375" y2="19.53125" stroke="black" stroke-width="0.1px"/></g><g><line x1="74.21875" y1="16.40625" x2="74.21875" y2="21.09375" stroke="black" stroke-width="0.1px"/><line x1="75.78125" y1="16.40625" x2="75.78125" y2="21.09375" stroke="black" stroke-width="0.1px"/><line x1="72.65625" y1="17.96875" x2="77.34375" y2="17.96875" stroke="black" stroke-width="0.1px"/><line x1="72.65625" y1="19.53125" x2="77.34375" y2="19.53125" stroke="black" stroke-width="0.1px"/></g><g><line x1="80.46875" y1="16.40625" x2="80.46875" y2="21.09375" stroke="black" stroke-width="0.1px"/><line x1="82.03125" y1="16.40625" x2="82.03125" y2="21.09375" stroke="black" stroke-width="0.1px"/><line x1="78.90625" y1="17.96875" x2="83.59375" y2="17.96875" stroke="black" stroke-width="0.1px"/><line x1="78.90625" y1="19.53125" x2="83.59375" y2="19.53125" stroke="black" stroke-width="0.1px"/></g><g><line x1="67.96875" y1="22.65625" x2="67.96875" y2="27.34375" stroke="black" stroke-width="0.1px"/><line x1="69.53125" y1="22.65625" x2="69.53125" y2="27.34375" stroke="black" stroke-width="0.1px"/><line x1="66.40625" y1="24.21875" x2="71.09375" y2="24.21875" stroke="black" stroke-width="0.1px"/><line x1="66.40625" y1="25.78125" x2="71.09375" y2="25.78125" stroke="black" stroke-width="0.1px"/></g><g><line x1="74.21875" y1="22.65625" x2="74.21875" y2="27.34375" stroke="black" stroke-width="0.1px"/><line x1="75.78125" y1="22.65625" x2="75.78125" y2="27.34375" stroke="black" stroke-width="0.1px"/><line x1="72.65625" y1="24.21875" x2="77.34375" y2="24.21875" stroke="black" stroke-width="0.1px"/><line x1="72.65625" y1="25.78125" x2="77.34375" y2="25.78125" stroke="black" stroke-width="0.1px"/></g><g><line x1="80.46875" y1="22.65625" x2="80.46875" y2="27.34375" stroke="black" stroke-width="0.1px"/><line x1="82.03125" y1="22.65625" x2="82.03125" y2="27.34375" stroke="black" stroke-width="0.1px"/><line x1="78.90625" y1="24.21875" x2="83.59375" y2="24.21875" stroke="black" stroke-width="0.1px"/><line x1="78.90625" y1="25.78125" x2="83.59375" y2="25.78125" stroke="black" stroke-width="0.1px"/></g><g><line x1="67.96875" y1="28.90625" x2="67.96875" y2="33.59375" stroke="black" stroke-width="0.1px"/><line x1="69.53125" y1="28.90625" x2="69.53125" y2="33.59375" stroke="black" stroke-width="0.1px"/><line x1="66.40625" y1="30.46875" x2="71.09375" y2="30.46875" stroke="black" stroke-width="0.1px"/><line x1="66.40625" y1="32.03125" x2="71.09375" y2="32.03125" stroke="black" stroke-width="0.1px"/></g><g><line x1="74.21875" y1="28.90625" x2="74.21875" y2="33.59375" stroke="black" stroke-width="0.1px"/><line x1="75.78125" y1="28.90625" x2="75.78125" y2="33.59375" stroke="black" stroke-width="0.1px"/><line x1="72.65625" y1="30.46875" x2="77.34375" y2="30.46875" stroke="black" stroke-width="0.1px"/><line x1="72.65625" y1="32.03125" x2="77.34375" y2="32.03125" stroke="black" stroke-width="0.1px"/></g><g><line x1="80.46875" y1="28.90625" x2="80.46875" y2="33.59375" stroke="black" stroke-width="0.1px"/><line x1="82.03125" y1="28.90625" x2="82.03125" y2="33.59375" stroke="black" stroke-width="0.1px"/><line x1="78.90625" y1="30.46875" x2="83.59375" y2="30.46875" stroke="black" stroke-width="0.1px"/><line x1="78.90625" y1="32.03125" x2="83.59375" y2="32.03125" stroke="black" stroke-width="0.1px"/></g><g><line x1="21.875" y1="40.625" x2="21.875" y2="59.375" stroke="black" stroke-width="0.25px"/><line x1="28.125" y1="40.625" x2="28.125" y2="59.375" stroke="black" stroke-width="0.25px"/><line x1="15.625" y1="46.875" x2="34.375" y2="46.875" stroke="black" stroke-width="0.25px"/><line x1="15.625" y1="53.125" x2="34.375" y2="53.125" stroke="black" stroke-width="0.25px"/></g><g><line x1="17.96875" y1="41.40625" x2="17.96875" y2="46.09375" stroke="black" stroke-width="0.1px"/><line x1="19.53125" y1="41.40625" x2="19.53125" y2="46.09375" stroke="black" stroke-width="0.1px"/><line x1="16.40625" y1="42.96875" x2="21.09375" y2="42.96875" stroke="black" stroke-width="0.1px"/><line x1="16.40625" y1="44.53125" x2="21.09375" y2="44.53125" stroke="black" stroke-width="0.1px"/></g><g><line x1="24.21875" y1="41.40625" x2="24.21875" y2="46.09375" stroke="black" stroke-width="0.1px"/><line x1="25.78125" y1="41.40625" x2="25.78125" y2="46.09375" stroke="black" stroke-width="0.1px"/><line x1="22.65625" y1="42.96875" x2="27.34375" y2="42.96875" stroke="black" stroke-width="0.1px"/><line x1="22.65625" y1="44.53125" x2="27.34375" y2="44.53125" stroke="black" stroke-width="0.1px"/></g><g><line x1="30.46875" y1="41.40625" x2="30.46875" y2="46.09375" stroke="black" stroke-width="0.1px"/><line x1="32.03125" y1="41.40625" x2="32.03125" y2="46.09375" stroke="black" stroke-width="0.1px"/><line x1="28.90625" y1="42.96875" x2="33.59375" y2="42.96875" stroke="black" stroke-width="0.1px"/><line x1="28.90625" y1="44.53125" x2="33.59375" y2="44.53125" stroke="black" stroke-width="0.1px"/></g><g><line x1="17.96875" y1="47.65625" x2="17.96875" y2="52.34375" stroke="black" stroke-width="0.1px"/><line x1="19.53125" y1="47.65625" x2="19.53125" y2="52.34375" stroke="black" stroke-width="0.1px"/><line x1="16.40625" y1="49.21875" x2="21.09375" y2="49.21875" stroke="black" stroke-width="0.1px"/><line x1="16.40625" y1="50.78125" x2="21.09375" y2="50.78125" stroke="black" stroke-width="0.1px"/></g><g><line x1="24.21875" y1="47.65625" x2="24.21875" y2="52.34375" stroke="black" stroke-width="0.1px"/><line x1="25.78125" y1="47.65625" x2="25.78125" y2="52.34375" stroke="black" stroke-width="0.1px"/><line x1="22.65625" y1="49.21875" x2="27.34375" y2="49.21875" stroke="black" stroke-width="0.1px"/><line x1="22.65625" y1="50.78125" x2="27.34375" y2="50.78125" stroke="black" stroke-width="0.1px"/></g><g><line x1="30.46875" y1="47.65625" x2="30.46875" y2="52.34375" stroke="black" stroke-width="0.1px"/><line x1="32.03125" y1="47.65625" x2="32.03125" y2="52.34375" stroke="black" stroke-width="0.1px"/><line x1="28.90625" y1="49.21875" x2="33.59375" y2="49.21875" stroke="black" stroke-width="0.1px"/><line x1="28.90625" y1="50.78125" x2="33.59375" y2="50.78125" stroke="black" stroke-width="0.1px"/></g><g><line x1="17.96875" y1="53.90625" x2="17.96875" y2="58.59375" stroke="black" stroke-width="0.1px"/><line x1="19.53125" y1="53.90625" x2="19.53125" y2="58.59375" stroke="black" stroke-width="0.1px"/><line x1="16.40625" y1="55.46875" x2="21.09375" y2="55.46875" stroke="black" stroke-width="0.1px"/><line x1="16.40625" y1="57.03125" x2="21.09375" y2="57.03125" stroke="black" stroke-width="0.1px"/></g><g><line x1="24.21875" y1="53.90625" x2="24.21875" y2="58.59375" stroke="black" stroke-width="0.1px"/><line x1="25.78125" y1="53.90625" x2="25.78125" y2="58.59375" stroke="black" stroke-width="0.1px"/><line x1="22.65625" y1="55.46875" x2="27.34375" y2="55.46875" stroke="black" stroke-width="0.1px"/><line x1="22.65625" y1="57.03125" x2="27.34375" y2="57.03125" stroke="black" stroke-width="0.1px"/></g><g><line x1="30.46875" y1="53.90625" x2="30.46875" y2="58.59375" stroke="black" stroke-width="0.1px"/><line x1="32.03125" y1="53.90625" x2="32.03125" y2="58.59375" stroke="black" stroke-width="0.1px"/><line x1="28.90625" y1="55.46875" x2="33.59375" y2="55.46875" stroke="black" stroke-width="0.1px"/><line x1="28.90625" y1="57.03125" x2="33.59375" y2="57.03125" stroke="black" stroke-width="0.1px"/></g><g><line x1="46.875" y1="40.625" x2="46.875" y2="59.375" stroke="black" stroke-width="0.25px"/><line x1="53.125" y1="40.625" x2="53.125" y2="59.375" stroke="black" stroke-width="0.25px"/><line x1="40.625" y1="46.875" x2="59.375" y2="46.875" stroke="black" stroke-width="0.25px"/><line x1="40.625" y1="53.125" x2="59.375" y2="53.125" stroke="black" stroke-width="0.25px"/></g><g><line x1="42.96875" y1="41.40625" x2="42.96875" y2="46.09375" stroke="black" stroke-width="0.1px"/><line x1="44.53125" y1="41.40625" x2="44.53125" y2="46.09375" stroke="black" stroke-width="0.1px"/><line x1="41.40625" y1="42.96875" x2="46.09375" y2="42.96875" stroke="black" stroke-width="0.1px"/><line x1="41.40625" y1="44.53125" x2="46.09375" y2="44.53125" stroke="black" stroke-width="0.1px"/></g><g><line x1="49.21875" y1="41.40625" x2="49.21875" y2="46.09375" stroke="black" stroke-width="0.1px"/><line x1="50.78125" y1="41.40625" x2="50.78125" y2="46.09375" stroke="black" stroke-width="0.1px"/><line x1="47.65625" y1="42.96875" x2="52.34375" y2="42.96875" stroke="black" stroke-width="0.1px"/><line x1="47.65625" y1="44.53125" x2="52.34375" y2="44.53125" stroke="black" stroke-width="0.1px"/></g><g><line x1="55.46875" y1="41.40625" x2="55.46875" y2="46.09375" stroke="black" stroke-width="0.1px"/><line x1="57.03125" y1="41.40625" x2="57.03125" y2="46.09375" stroke="black" stroke-width="0.1px"/><line x1="53.90625" y1="42.96875" x2="58.59375" y2="42.96875" stroke="black" stroke-width="0.1px"/><line x1="53.90625" y1="44.53125" x2="58.59375" y2="44.53125" stroke="black" stroke-width="0.1px"/></g><g><line x1="42.96875" y1="47.65625" x2="42.96875" y2="52.34375" stroke="black" stroke-width="0.1px"/><line x1="44.53125" y1="47.65625" x2="44.53125" y2="52.34375" stroke="black" stroke-width="0.1px"/><line x1="41.40625" y1="49.21875" x2="46.09375" y2="49.21875" stroke="black" stroke-width="0.1px"/><line x1="41.40625" y1="50.78125" x2="46.09375" y2="50.78125" stroke="black" stroke-width="0.1px"/></g><g><line x1="49.21875" y1="47.65625" x2="49.21875" y2="52.34375" stroke="black" stroke-width="0.1px"/><line x1="50.78125" y1="47.65625" x2="50.78125" y2="52.34375" stroke="black" stroke-width="0.1px"/><line x1="47.65625" y1="49.21875" x2="52.34375" y2="49.21875" stroke="black" stroke-width="0.1px"/><line x1="47.65625" y1="50.78125" x2="52.34375" y2="50.78125" stroke="black" stroke-width="0.1px"/></g><g><line x1="55.46875" y1="47.65625" x2="55.46875" y2="52.34375" stroke="black" stroke-width="0.1px"/><line x1="57.03125" y1="47.65625" x2="57.03125" y2="52.34375" stroke="black" stroke-width="0.1px"/><line x1="53.90625" y1="49.21875" x2="58.59375" y2="49.21875" stroke="black" stroke-width="0.1px"/><line x1="53.90625" y1="50.78125" x2="58.59375" y2="50.78125" stroke="black" stroke-width="0.1px"/></g><g><line x1="42.96875" y1="53.90625" x2="42.96875" y2="58.59375" stroke="black" stroke-width="0.1px"/><line x1="44.53125" y1="53.90625" x2="44.53125" y2="58.59375" stroke="black" stroke-width="0.1px"/><line x1="41.40625" y1="55.46875" x2="46.09375" y2="55.46875" stroke="black" stroke-width="0.1px"/><line x1="41.40625" y1="57.03125" x2="46.09375" y2="57.03125" stroke="black" stroke-width="0.1px"/></g><g><line x1="49.21875" y1="53.90625" x2="49.21875" y2="58.59375" stroke="black" stroke-width="0.1px"/><line x1="50.78125" y1="53.90625" x2="50.78125" y2="58.59375" stroke="black" stroke-width="0.1px"/><line x1="47.65625" y1="55.46875" x2="52.34375" y2="55.46875" stroke="black" stroke-width="0.1px"/><line x1="47.65625" y1="57.03125" x2="52.34375" y2="57.03125" stroke="black" stroke-width="0.1px"/></g><g><line x1="55.46875" y1="53.90625" x2="55.46875" y2="58.59375" stroke="black" stroke-width="0.1px"/><line x1="57.03125" y1="53.90625" x2="57.03125" y2="58.59375" stroke="black" stroke-width="0.1px"/><line x1="53.90625" y1="55.46875" x2="58.59375" y2="55.46875" stroke="black" stroke-width="0.1px"/><line x1="53.90625" y1="57.03125" x2="58.59375" y2="57.03125" stroke="black" stroke-width="0.1px"/></g><g><line x1="71.875" y1="40.625" x2="71.875" y2="59.375" stroke="black" stroke-width="0.25px"/><line x1="78.125" y1="40.625" x2="78.125" y2="59.375" stroke="black" stroke-width="0.25px"/><line x1="65.625" y1="46.875" x2="84.375" y2="46.875" stroke="black" stroke-width="0.25px"/><line x1="65.625" y1="53.125" x2="84.375" y2="53.125" stroke="black" stroke-width="0.25px"/></g><g><line x1="67.96875" y1="41.40625" x2="67.96875" y2="46.09375" stroke="black" stroke-width="0.1px"/><line x1="69.53125" y1="41.40625" x2="69.53125" y2="46.09375" stroke="black" stroke-width="0.1px"/><line x1="66.40625" y1="42.96875" x2="71.09375" y2="42.96875" stroke="black" stroke-width="0.1px"/><line x1="66.40625" y1="44.53125" x2="71.09375" y2="44.53125" stroke="black" stroke-width="0.1px"/></g><g><line x1="74.21875" y1="41.40625" x2="74.21875" y2="46.09375" stroke="black" stroke-width="0.1px"/><line x1="75.78125" y1="41.40625" x2="75.78125" y2="46.09375" stroke="black" stroke-width="0.1px"/><line x1="72.65625" y1="42.96875" x2="77.34375" y2="42.96875" stroke="black" stroke-width="0.1px"/><line x1="72.65625" y1="44.53125" x2="77.34375" y2="44.53125" stroke="black" stroke-width="0.1px"/></g><g><line x1="80.46875" y1="41.40625" x2="80.46875" y2="46.09375" stroke="black" stroke-width="0.1px"/><line x1="82.03125" y1="41.40625" x2="82.03125" y2="46.09375" stroke="black" stroke-width="0.1px"/><line x1="78.90625" y1="42.96875" x2="83.59375" y2="42.96875" stroke="black" stroke-width="0.1px"/><line x1="78.90625" y1="44.53125" x2="83.59375" y2="44.53125" stroke="black" stroke-width="0.1px"/></g><g><line x1="67.96875" y1="47.65625" x2="67.96875" y2="52.34375" stroke="black" stroke-width="0.1px"/><line x1="69.53125" y1="47.65625" x2="69.53125" y2="52.34375" stroke="black" stroke-width="0.1px"/><line x1="66.40625" y1="49.21875" x2="71.09375" y2="49.21875" stroke="black" stroke-width="0.1px"/><line x1="66.40625" y1="50.78125" x2="71.09375" y2="50.78125" stroke="black" stroke-width="0.1px"/></g><g><line x1="74.21875" y1="47.65625" x2="74.21875" y2="52.34375" stroke="black" stroke-width="0.1px"/><line x1="75.78125" y1="47.65625" x2="75.78125" y2="52.34375" stroke="black" stroke-width="0.1px"/><line x1="72.65625" y1="49.21875" x2="77.34375" y2="49.21875" stroke="black" stroke-width="0.1px"/><line x1="72.65625" y1="50.78125" x2="77.34375" y2="50.78125" stroke="black" stroke-width="0.1px"/></g><g><line x1="80.46875" y1="47.65625" x2="80.46875" y2="52.34375" stroke="black" stroke-width="0.1px"/><line x1="82.03125" y1="47.65625" x2="82.03125" y2="52.34375" stroke="black" stroke-width="0.1px"/><line x1="78.90625" y1="49.21875" x2="83.59375" y2="49.21875" stroke="black" stroke-width="0.1px"/><line x1="78.90625" y1="50.78125" x2="83.59375" y2="50.78125" stroke="black" stroke-width="0.1px"/></g><g><line x1="67.96875" y1="53.90625" x2="67.96875" y2="58.59375" stroke="black" stroke-width="0.1px"/><line x1="69.53125" y1="53.90625" x2="69.53125" y2="58.59375" stroke="black" stroke-width="0.1px"/><line x1="66.40625" y1="55.46875" x2="71.09375" y2="55.46875" stroke="black" stroke-width="0.1px"/><line x1="66.40625" y1="57.03125" x2="71.09375" y2="57.03125" stroke="black" stroke-width="0.1px"/></g><g><line x1="74.21875" y1="53.90625" x2="74.21875" y2="58.59375" stroke="black" stroke-width="0.1px"/><line x1="75.78125" y1="53.90625" x2="75.78125" y2="58.59375" stroke="black" stroke-width="0.1px"/><line x1="72.65625" y1="55.46875" x2="77.34375" y2="55.46875" stroke="black" stroke-width="0.1px"/><line x1="72.65625" y1="57.03125" x2="77.34375" y2="57.03125" stroke="black" stroke-width="0.1px"/></g><g><line x1="80.46875" y1="53.90625" x2="80.46875" y2="58.59375" stroke="black" stroke-width="0.1px"/><line x1="82.03125" y1="53.90625" x2="82.03125" y2="58.59375" stroke="black" stroke-width="0.1px"/><line x1="78.90625" y1="55.46875" x2="83.59375" y2="55.46875" stroke="black" stroke-width="0.1px"/><line x1="78.90625" y1="57.03125" x2="83.59375" y2="57.03125" stroke="black" stroke-width="0.1px"/></g><g><line x1="21.875" y1="65.625" x2="21.875" y2="84.375" stroke="black" stroke-width="0.25px"/><line x1="28.125" y1="65.625" x2="28.125" y2="84.375" stroke="black" stroke-width="0.25px"/><line x1="15.625" y1="71.875" x2="34.375" y2="71.875" stroke="black" stroke-width="0.25px"/><line x1="15.625" y1="78.125" x2="34.375" y2="78.125" stroke="black" stroke-width="0.25px"/></g><g><line x1="17.96875" y1="66.40625" x2="17.96875" y2="71.09375" stroke="black" stroke-width="0.1px"/><line x1="19.53125" y1="66.40625" x2="19.53125" y2="71.09375" stroke="black" stroke-width="0.1px"/><line x1="16.40625" y1="67.96875" x2="21.09375" y2="67.96875" stroke="black" stroke-width="0.1px"/><line x1="16.40625" y1="69.53125" x2="21.09375" y2="69.53125" stroke="black" stroke-width="0.1px"/></g><g><line x1="24.21875" y1="66.40625" x2="24.21875" y2="71.09375" stroke="black" stroke-width="0.1px"/><line x1="25.78125" y1="66.40625" x2="25.78125" y2="71.09375" stroke="black" stroke-width="0.1px"/><line x1="22.65625" y1="67.96875" x2="27.34375" y2="67.96875" stroke="black" stroke-width="0.1px"/><line x1="22.65625" y1="69.53125" x2="27.34375" y2="69.53125" stroke="black" stroke-width="0.1px"/></g><g><line x1="30.46875" y1="66.40625" x2="30.46875" y2="71.09375" stroke="black" stroke-width="0.1px"/><line x1="32.03125" y1="66.40625" x2="32.03125" y2="71.09375" stroke="black" stroke-width="0.1px"/><line x1="28.90625" y1="67.96875" x2="33.59375" y2="67.96875" stroke="black" stroke-width="0.1px"/><line x1="28.90625" y1="69.53125" x2="33.59375" y2="69.53125" stroke="black" stroke-width="0.1px"/></g><g><line x1="17.96875" y1="72.65625" x2="17.96875" y2="77.34375" stroke="black" stroke-width="0.1px"/><line x1="19.53125" y1="72.65625" x2="19.53125" y2="77.34375" stroke="black" stroke-width="0.1px"/><line x1="16.40625" y1="74.21875" x2="21.09375" y2="74.21875" stroke="black" stroke-width="0.1px"/><line x1="16.40625" y1="75.78125" x2="21.09375" y2="75.78125" stroke="black" stroke-width="0.1px"/></g><g><line x1="24.21875" y1="72.65625" x2="24.21875" y2="77.34375" stroke="black" stroke-width="0.1px"/><line x1="25.78125" y1="72.65625" x2="25.78125" y2="77.34375" stroke="black" stroke-width="0.1px"/><line x1="22.65625" y1="74.21875" x2="27.34375" y2="74.21875" stroke="black" stroke-width="0.1px"/><line x1="22.65625" y1="75.78125" x2="27.34375" y2="75.78125" stroke="black" stroke-width="0.1px"/></g><g><line x1="30.46875" y1="72.65625" x2="30.46875" y2="77.34375" stroke="black" stroke-width="0.1px"/><line x1="32.03125" y1="72.65625" x2="32.03125" y2="77.34375" stroke="black" stroke-width="0.1px"/><line x1="28.90625" y1="74.21875" x2="33.59375" y2="74.21875" stroke="black" stroke-width="0.1px"/><line x1="28.90625" y1="75.78125" x2="33.59375" y2="75.78125" stroke="black" stroke-width="0.1px"/></g><g><line x1="17.96875" y1="78.90625" x2="17.96875" y2="83.59375" stroke="black" stroke-width="0.1px"/><line x1="19.53125" y1="78.90625" x2="19.53125" y2="83.59375" stroke="black" stroke-width="0.1px"/><line x1="16.40625" y1="80.46875" x2="21.09375" y2="80.46875" stroke="black" stroke-width="0.1px"/><line x1="16.40625" y1="82.03125" x2="21.09375" y2="82.03125" stroke="black" stroke-width="0.1px"/></g><g><line x1="24.21875" y1="78.90625" x2="24.21875" y2="83.59375" stroke="black" stroke-width="0.1px"/><line x1="25.78125" y1="78.90625" x2="25.78125" y2="83.59375" stroke="black" stroke-width="0.1px"/><line x1="22.65625" y1="80.46875" x2="27.34375" y2="80.46875" stroke="black" stroke-width="0.1px"/><line x1="22.65625" y1="82.03125" x2="27.34375" y2="82.03125" stroke="black" stroke-width="0.1px"/></g><g><line x1="30.46875" y1="78.90625" x2="30.46875" y2="83.59375" stroke="black" stroke-width="0.1px"/><line x1="32.03125" y1="78.90625" x2="32.03125" y2="83.59375" stroke="black" stroke-width="0.1px"/><line x1="28.90625" y1="80.46875" x2="33.59375" y2="80.46875" stroke="black" stroke-width="0.1px"/><line x1="28.90625" y1="82.03125" x2="33.59375" y2="82.03125" stroke="black" stroke-width="0.1px"/></g><g><line x1="46.875" y1="65.625" x2="46.875" y2="84.375" stroke="black" stroke-width="0.25px"/><line x1="53.125" y1="65.625" x2="53.125" y2="84.375" stroke="black" stroke-width="0.25px"/><line x1="40.625" y1="71.875" x2="59.375" y2="71.875" stroke="black" stroke-width="0.25px"/><line x1="40.625" y1="78.125" x2="59.375" y2="78.125" stroke="black" stroke-width="0.25px"/></g><g><line x1="42.96875" y1="66.40625" x2="42.96875" y2="71.09375" stroke="black" stroke-width="0.1px"/><line x1="44.53125" y1="66.40625" x2="44.53125" y2="71.09375" stroke="black" stroke-width="0.1px"/><line x1="41.40625" y1="67.96875" x2="46.09375" y2="67.96875" stroke="black" stroke-width="0.1px"/><line x1="41.40625" y1="69.53125" x2="46.09375" y2="69.53125" stroke="black" stroke-width="0.1px"/></g><g><line x1="49.21875" y1="66.40625" x2="49.21875" y2="71.09375" stroke="black" stroke-width="0.1px"/><line x1="50.78125" y1="66.40625" x2="50.78125" y2="71.09375" stroke="black" stroke-width="0.1px"/><line x1="47.65625" y1="67.96875" x2="52.34375" y2="67.96875" stroke="black" stroke-width="0.1px"/><line x1="47.65625" y1="69.53125" x2="52.34375" y2="69.53125" stroke="black" stroke-width="0.1px"/></g><g><line x1="55.46875" y1="66.40625" x2="55.46875" y2="71.09375" stroke="black" stroke-width="0.1px"/><line x1="57.03125" y1="66.40625" x2="57.03125" y2="71.09375" stroke="black" stroke-width="0.1px"/><line x1="53.90625" y1="67.96875" x2="58.59375" y2="67.96875" stroke="black" stroke-width="0.1px"/><line x1="53.90625" y1="69.53125" x2="58.59375" y2="69.53125" stroke="black" stroke-width="0.1px"/></g><g><line x1="42.96875" y1="72.65625" x2="42.96875" y2="77.34375" stroke="black" stroke-width="0.1px"/><line x1="44.53125" y1="72.65625" x2="44.53125" y2="77.34375" stroke="black" stroke-width="0.1px"/><line x1="41.40625" y1="74.21875" x2="46.09375" y2="74.21875" stroke="black" stroke-width="0.1px"/><line x1="41.40625" y1="75.78125" x2="46.09375" y2="75.78125" stroke="black" stroke-width="0.1px"/></g><g><line x1="49.21875" y1="72.65625" x2="49.21875" y2="77.34375" stroke="black" stroke-width="0.1px"/><line x1="50.78125" y1="72.65625" x2="50.78125" y2="77.34375" stroke="black" stroke-width="0.1px"/><line x1="47.65625" y1="74.21875" x2="52.34375" y2="74.21875" stroke="black" stroke-width="0.1px"/><line x1="47.65625" y1="75.78125" x2="52.34375" y2="75.78125" stroke="black" stroke-width="0.1px"/></g><g><line x1="55.46875" y1="72.65625" x2="55.46875" y2="77.34375" stroke="black" stroke-width="0.1px"/><line x1="57.03125" y1="72.65625" x2="57.03125" y2="77.34375" stroke="black" stroke-width="0.1px"/><line x1="53.90625" y1="74.21875" x2="58.59375" y2="74.21875" stroke="black" stroke-width="0.1px"/><line x1="53.90625" y1="75.78125" x2="58.59375" y2="75.78125" stroke="black" stroke-width="0.1px"/></g><g><line x1="42.96875" y1="78.90625" x2="42.96875" y2="83.59375" stroke="black" stroke-width="0.1px"/><line x1="44.53125" y1="78.90625" x2="44.53125" y2="83.59375" stroke="black" stroke-width="0.1px"/><line x1="41.40625" y1="80.46875" x2="46.09375" y2="80.46875" stroke="black" stroke-width="0.1px"/><line x1="41.40625" y1="82.03125" x2="46.09375" y2="82.03125" stroke="black" stroke-width="0.1px"/></g><g><line x1="49.21875" y1="78.90625" x2="49.21875" y2="83.59375" stroke="black" stroke-width="0.1px"/><line x1="50.78125" y1="78.90625" x2="50.78125" y2="83.59375" stroke="black" stroke-width="0.1px"/><line x1="47.65625" y1="80.46875" x2="52.34375" y2="80.46875" stroke="black" stroke-width="0.1px"/><line x1="47.65625" y1="82.03125" x2="52.34375" y2="82.03125" stroke="black" stroke-width="0.1px"/></g><g><line x1="55.46875" y1="78.90625" x2="55.46875" y2="83.59375" stroke="black" stroke-width="0.1px"/><line x1="57.03125" y1="78.90625" x2="57.03125" y2="83.59375" stroke="black" stroke-width="0.1px"/><line x1="53.90625" y1="80.46875" x2="58.59375" y2="80.46875" stroke="black" stroke-width="0.1px"/><line x1="53.90625" y1="82.03125" x2="58.59375" y2="82.03125" stroke="black" stroke-width="0.1px"/></g><g><line x1="71.875" y1="65.625" x2="71.875" y2="84.375" stroke="black" stroke-width="0.25px"/><line x1="78.125" y1="65.625" x2="78.125" y2="84.375" stroke="black" stroke-width="0.25px"/><line x1="65.625" y1="71.875" x2="84.375" y2="71.875" stroke="black" stroke-width="0.25px"/><line x1="65.625" y1="78.125" x2="84.375" y2="78.125" stroke="black" stroke-width="0.25px"/></g><g><line x1="67.96875" y1="66.40625" x2="67.96875" y2="71.09375" stroke="black" stroke-width="0.1px"/><line x1="69.53125" y1="66.40625" x2="69.53125" y2="71.09375" stroke="black" stroke-width="0.1px"/><line x1="66.40625" y1="67.96875" x2="71.09375" y2="67.96875" stroke="black" stroke-width="0.1px"/><line x1="66.40625" y1="69.53125" x2="71.09375" y2="69.53125" stroke="black" stroke-width="0.1px"/></g><g><line x1="74.21875" y1="66.40625" x2="74.21875" y2="71.09375" stroke="black" stroke-width="0.1px"/><line x1="75.78125" y1="66.40625" x2="75.78125" y2="71.09375" stroke="black" stroke-width="0.1px"/><line x1="72.65625" y1="67.96875" x2="77.34375" y2="67.96875" stroke="black" stroke-width="0.1px"/><line x1="72.65625" y1="69.53125" x2="77.34375" y2="69.53125" stroke="black" stroke-width="0.1px"/></g><g><line x1="80.46875" y1="66.40625" x2="80.46875" y2="71.09375" stroke="black" stroke-width="0.1px"/><line x1="82.03125" y1="66.40625" x2="82.03125" y2="71.09375" stroke="black" stroke-width="0.1px"/><line x1="78.90625" y1="67.96875" x2="83.59375" y2="67.96875" stroke="black" stroke-width="0.1px"/><line x1="78.90625" y1="69.53125" x2="83.59375" y2="69.53125" stroke="black" stroke-width="0.1px"/></g><g><line x1="67.96875" y1="72.65625" x2="67.96875" y2="77.34375" stroke="black" stroke-width="0.1px"/><line x1="69.53125" y1="72.65625" x2="69.53125" y2="77.34375" stroke="black" stroke-width="0.1px"/><line x1="66.40625" y1="74.21875" x2="71.09375" y2="74.21875" stroke="black" stroke-width="0.1px"/><line x1="66.40625" y1="75.78125" x2="71.09375" y2="75.78125" stroke="black" stroke-width="0.1px"/></g><g><line x1="74.21875" y1="72.65625" x2="74.21875" y2="77.34375" stroke="black" stroke-width="0.1px"/><line x1="75.78125" y1="72.65625" x2="75.78125" y2="77.34375" stroke="black" stroke-width="0.1px"/><line x1="72.65625" y1="74.21875" x2="77.34375" y2="74.21875" stroke="black" stroke-width="0.1px"/><line x1="72.65625" y1="75.78125" x2="77.34375" y2="75.78125" stroke="black" stroke-width="0.1px"/></g><g><line x1="80.46875" y1="72.65625" x2="80.46875" y2="77.34375" stroke="black" stroke-width="0.1px"/><line x1="82.03125" y1="72.65625" x2="82.03125" y2="77.34375" stroke="black" stroke-width="0.1px"/><line x1="78.90625" y1="74.21875" x2="83.59375" y2="74.21875" stroke="black" stroke-width="0.1px"/><line x1="78.90625" y1="75.78125" x2="83.59375" y2="75.78125" stroke="black" stroke-width="0.1px"/></g><g><line x1="67.96875" y1="78.90625" x2="67.96875" y2="83.59375" stroke="black" stroke-width="0.1px"/><line x1="69.53125" y1="78.90625" x2="69.53125" y2="83.59375" stroke="black" stroke-width="0.1px"/><line x1="66.40625" y1="80.46875" x2="71.09375" y2="80.46875" stroke="black" stroke-width="0.1px"/><line x1="66.40625" y1="82.03125" x2="71.09375" y2="82.03125" stroke="black" stroke-width="0.1px"/></g><g><line x1="74.21875" y1="78.90625" x2="74.21875" y2="83.59375" stroke="black" stroke-width="0.1px"/><line x1="75.78125" y1="78.90625" x2="75.78125" y2="83.59375" stroke="black" stroke-width="0.1px"/><line x1="72.65625" y1="80.46875" x2="77.34375" y2="80.46875" stroke="black" stroke-width="0.1px"/><line x1="72.65625" y1="82.03125" x2="77.34375" y2="82.03125" stroke="black" stroke-width="0.1px"/></g><g><line x1="80.46875" y1="78.90625" x2="80.46875" y2="83.59375" stroke="black" stroke-width="0.1px"/><line x1="82.03125" y1="78.90625" x2="82.03125" y2="83.59375" stroke="black" stroke-width="0.1px"/><line x1="78.90625" y1="80.46875" x2="83.59375" y2="80.46875" stroke="black" stroke-width="0.1px"/><line x1="78.90625" y1="82.03125" x2="83.59375" y2="82.03125" stroke="black" stroke-width="0.1px"/></g></svg>
